<?xml version="1.0" encoding="UTF-8"?>
<svg xmlns="http://www.w3.org/2000/svg" xmlns:xlink="http://www.w3.org/1999/xlink" width="49px" height="49px" viewBox="0 0 49 49" version="1.1">
<g id="surface1">
<path style="fill:none;stroke-width:10;stroke-linecap:butt;stroke-linejoin:miter;stroke:rgb(14.901961%,73.333333%,64.313725%);stroke-opacity:1;stroke-miterlimit:4;" d="M 119.997608 62.5 C 119.997608 94.258211 94.258211 119.997608 62.5 119.997608 C 30.741789 119.997608 5.002392 94.258211 5.002392 62.5 C 5.002392 30.741789 30.741789 5.002392 62.5 5.002392 C 94.258211 5.002392 119.997608 30.741789 119.997608 62.5 Z M 119.997608 62.5 " transform="matrix(0.392,0,0,0.392,0,0)"/>
<path style="fill:none;stroke-width:10;stroke-linecap:round;stroke-linejoin:miter;stroke:rgb(14.901961%,73.333333%,64.313725%);stroke-opacity:1;stroke-miterlimit:4;" d="M 85.479114 85.479114 C 72.793766 98.174426 52.206234 98.174426 39.520886 85.479114 C 26.825574 72.793766 26.825574 52.206234 39.520886 39.520886 C 52.206234 26.825574 72.793766 26.825574 85.479114 39.520886 " transform="matrix(0.392,0,0,0.392,0,0)"/>
</g>
</svg>
